<svg width="43" height="43" viewBox="0 0 43 43" fill="none" xmlns="http://www.w3.org/2000/svg">
<circle cx="21.5" cy="21.5" r="21.5" fill="#E8F3F1"/>
<path fill-rule="evenodd" clip-rule="evenodd" d="M25.4702 27.8097H17.9037C17.4698 27.8097 17.1177 27.4572 17.1177 27.0228C17.1177 26.5884 17.4698 26.2358 17.9037 26.2358H25.4702C25.9041 26.2358 26.2562 26.5884 26.2562 27.0228C26.2562 27.4572 25.9041 27.8097 25.4702 27.8097Z" fill="#199A8E"/>
<path fill-rule="evenodd" clip-rule="evenodd" d="M25.4702 23.4172H17.9037C17.4698 23.4172 17.1177 23.0646 17.1177 22.6302C17.1177 22.1958 17.4698 21.8433 17.9037 21.8433H25.4702C25.9041 21.8433 26.2562 22.1958 26.2562 22.6302C26.2562 23.0646 25.9041 23.4172 25.4702 23.4172Z" fill="#199A8E"/>
<path fill-rule="evenodd" clip-rule="evenodd" d="M20.7907 19.0343H17.9034C17.4696 19.0343 17.1174 18.6818 17.1174 18.2474C17.1174 17.813 17.4696 17.4604 17.9034 17.4604H20.7907C21.2245 17.4604 21.5767 17.813 21.5767 18.2474C21.5767 18.6818 21.2245 19.0343 20.7907 19.0343Z" fill="#199A8E"/>
<mask id="mask0_1_406" style="mask-type:luminance" maskUnits="userSpaceOnUse" x="12" y="12" width="20" height="21">
<path fill-rule="evenodd" clip-rule="evenodd" d="M12.144 12.0986H31.1807V32.9892H12.144V12.0986Z" fill="white"/>
</mask>
<g mask="url(#mask0_1_406)">
<path fill-rule="evenodd" clip-rule="evenodd" d="M25.6724 13.6725L17.6144 13.6767C15.1746 13.6914 13.7158 15.2023 13.7158 17.7195V27.3685C13.7158 29.9025 15.1882 31.4155 17.6521 31.4155L25.7102 31.4124C28.1499 31.3977 29.6087 29.8847 29.6087 27.3685V17.7195C29.6087 15.1856 28.1373 13.6725 25.6724 13.6725ZM17.6531 32.9894C14.3582 32.9894 12.1438 30.7304 12.1438 27.3685V17.7195C12.1438 14.3273 14.2891 12.1228 17.6091 12.1028L25.6714 12.0986H25.6724C28.9673 12.0986 31.1807 14.3577 31.1807 17.7195V27.3685C31.1807 30.7597 29.0355 32.9653 25.7154 32.9863L17.6531 32.9894Z" fill="#199A8E"/>
</g>
</svg>
