<svg width="43" height="43" viewBox="0 0 43 43" fill="none" xmlns="http://www.w3.org/2000/svg">
<circle cx="21.5" cy="21.5" r="21.5" fill="#E8F3F1"/>
<path fill-rule="evenodd" clip-rule="evenodd" d="M20.48 13.5739C15.568 13.5739 11.572 17.5747 11.572 22.4926C11.572 27.4105 15.568 31.4113 20.48 31.4113C25.392 31.4113 29.388 27.4105 29.388 22.4926C29.388 17.5747 25.392 13.5739 20.48 13.5739ZM20.48 32.9852C14.7013 32.9852 10 28.2782 10 22.4926C10 16.707 14.7013 12 20.48 12C26.2587 12 30.96 16.707 30.96 22.4926C30.96 28.2782 26.2587 32.9852 20.48 32.9852Z" fill="#FE5C5C"/>
<path fill-rule="evenodd" clip-rule="evenodd" d="M20.4737 23.9332C20.0399 23.9332 19.6877 23.5807 19.6877 23.1463V18.5096C19.6877 18.0752 20.0399 17.7227 20.4737 17.7227C20.9076 17.7227 21.2597 18.0752 21.2597 18.5096V23.1463C21.2597 23.5807 20.9076 23.9332 20.4737 23.9332Z" fill="#FE5C5C"/>
<path fill-rule="evenodd" clip-rule="evenodd" d="M20.4841 27.5248C19.9046 27.5248 19.4309 27.0558 19.4309 26.4755C19.4309 25.8953 19.8952 25.4263 20.4737 25.4263H20.4841C21.0637 25.4263 21.5321 25.8953 21.5321 26.4755C21.5321 27.0558 21.0637 27.5248 20.4841 27.5248Z" fill="#FE5C5C"/>
</svg>
